<?xml version="1.0" encoding="utf-8"?>
<!-- Generator: Adobe Illustrator 13.0.2, SVG Export Plug-In . SVG Version: 6.00 Build 14948)  -->
<!DOCTYPE svg PUBLIC "-//W3C//DTD SVG 1.1//EN" "http://www.w3.org/Graphics/SVG/1.1/DTD/svg11.dtd">
<svg version="1.1" id="Layer_1" xmlns="http://www.w3.org/2000/svg" xmlns:xlink="http://www.w3.org/1999/xlink" x="0px" y="0px"
	 width="453.03px" height="472.836px" viewBox="0 0 453.03 472.836" enable-background="new 0 0 453.03 472.836"
	 xml:space="preserve">
<path d="M87.984,94.513c0.82,1.46,0.172,2.887-1.164,3.744c-1.421,0.91-2.587,0.431-4.051-0.072
	c-0.674-0.232-1.711-0.772-2.438-0.625c-1.042,0.212-0.678,0.57-1.233,1.269c-0.935,1.17-2.227,1.312-3.746,1.437
	c-1.336,0.107-3.43-0.987-4.604-0.569c-0.926,0.329-0.5,0.813-1.017,1.417c-0.645,0.755-1.024,0.729-2.022,0.859
	c-0.749,0.097-1.64,0.327-2.387,0.329c-0.813,0.001-1.579-0.644-2.299-0.626c-1.511,0.038-1.758,1.945-3.135,2.501
	c-0.939,0.379-1.774-0.021-2.705,0.002c-0.948,0.025-1.389,0.501-2.267,0.708c-1.834,0.435-3.026-0.993-3.218-2.733
	c-1.063,0.744-4.896,4.812-5.61,1.726c-0.734,0.854-2.62,1.085-3.585,0.496c-1.236-0.755-0.802-2.278-0.581-3.509
	c-1.46,0.357-9.383,0.114-5.924-2.45c-1.324,0.217-3.962,0.587-5.209,0.077c-1.852-0.759-0.645-2.461,0.45-3.403
	c-1.24-0.419-3.361-0.411-4.388-1.267c-1.591-1.329,0.586-2.169,1.55-3.019c-1.143-0.3-2.68-0.52-2.697-2.021
	c1.373-0.462,2.821-0.293,4.23-0.822c1.071-0.401,2.134-0.777,3.222-1.079c2.742-0.76,5.067-1.948,7.641-3.161
	c1.217-0.572,2.478-1.093,3.683-1.587c-0.866-0.229-1.215-1.323-1.807-1.437c-0.587-0.113-1.604,0.703-2.431,0.586
	c-1.477-0.209-3.967-1.378-4.219-3.009c-1.846,0.031-2.704,0.462-4.396-0.82c-0.908-0.688-2.61-2.065-2.076-3.348
	c-2.351,0.296-5.791-3.112-6.046-5.326c-2.948,0.842-5.4-3.351-5.91-5.908c-1.004,0.458-2.49-1.13-3.023-1.912
	c-1.078-1.579-0.597-2.212,0.015-3.689c-2.467-0.2-5.402-6.163-2.767-7.659c-1.172-0.18-2.285-2.387-2.62-3.415
	c-0.56-1.717,0.122-2.444,1.469-3.347c-1.387-0.216-3.082-2.939-3.437-4.223c-0.651-2.357,1.116-3.285,3.001-3.967
	c-1.611-0.927-3.746-2.969-4.453-4.715C4.5,26.778,7.816,26.46,10.02,27.035c-1.666-0.67-3.225-3.653-4.081-5.181
	c-0.497-0.889-1.016-2.331,0.146-2.929c0.967-0.499,2.669,0.565,3.644,0.736c1.392,0.244,2.787,0.13,4.178,0.465
	c-2.3-1.848-5.741-4.789-4.775-8.225c0.964-3.433,5.68,1.72,7.266,2.578c1.584,0.857,3.191,1.567,4.704,2.561
	c-2.825-2.965-6.371-5.107-6.314-9.728c0.079-6.399,5.759,0.963,7.4,2.478c1.621,1.495,3.417,2.795,5.058,4.271
	c-2.628-4.239-7.558-8.447-5.277-14.053c1.971-0.211,4.346,3.672,5.579,4.958c2.065,2.156,3.656,4.725,5.427,7.139
	c0.785,1.069,1.701,2.367,2.925,2.842c-1.749-2.986-3.551-6.163-4.153-9.614c-0.144-0.824-0.586-3.085,0.518-3.531
	c1.131-0.457,2.32,1.512,2.791,2.225c2.119,3.212,3.18,6.991,5.406,10.15c1.816,2.579,3.769,4.957,5.353,7.703
	c1.722,2.986,3.542,5.81,5.632,8.557c-0.271-2.031-0.328-4.323,2.122-2.604c1.664,1.168,2.715,2.941,3.393,4.813
	c0.607,1.683,0.859,3.59,2.17,4.905c1.439,1.444,3.671,2.444,5.431,3.438c3.667,2.071,7.476,3.273,11.689,2.444
	c1.896-0.372,3.586-0.839,4.817-2.398c1.394-1.765,2.281-3.686,4.413-4.743c3.608-1.788,10.16-0.13,11.59,3.819
	c1.95-1.132,3.604-1.732,4.692-3.841c1.039-2.013,2.38-4.016,4.639-1.741c2.264-1.687,5.184-2.058,7.484-3.754
	c1.087-0.802,2.128-1.294,3.021-2.3c0.661-0.745,1.148-1.707,1.983-2.291c0.151,1.399-3.497,5.669-2.849,5.166
	c0.648-0.504,19.932-6.459,25.873-14.905c1.23-1.748,2.054-3.679,3.183-5.481c0.286,0.748,0.675,2.016,0.282,2.782
	c0.825-0.706,1.21-1.5,1.338-2.525c0.184,0.016,0.634,0.182,0.81,0.298c1.787,1.198-1.185,5.861-3.115,7.503
	c-0.055,0.052-0.057,0.049-0.008-0.008c0.679-0.538,2.367-2.368,2.976-1.187c0.706,1.371-1.895,3.267-2.702,3.954
	c-2.622,2.234-4.813,3.844-7.887,5.362c-1.469,0.725-2.29,2.128-3.72,2.919c2.12,0.049,4.68-0.223,6.649-0.71
	c1.903-0.47,4.077-1.858,6.091-2.004c-0.503,1.643-3.334,3.179-4.729,4.079c-1.173,0.756-4.695,2.272-4.875,3.642
	c1.871-0.374,4.174-0.06,6.143,0.043c0.292,1.631-3.296,3.008-4.36,3.864c-1.481,1.194-3.405,1.769-4.768,3.164
	c2.587,0.735,3.446,1.63,1.556,3.95c-1.243,1.524-2.484,2.584-4.333,3.28c1.987,2.955-0.029,6.565-3.158,7.324
	c0.427,2.25,0.038,4.796-2.59,4.748c-0.055,2.415-0.623,2.823-2.877,3.459c0.167,0.465,0.033,0.774-0.19,1.246
	c-0.397-0.158-0.611,0.078-0.958,0.047c0.075,2.688-1.458,2.49-3.597,2.877c-0.349,1.479-0.896,1.756-2.078,2.471
	c-1.053,0.637-1.571,1.411-2.369,2.356c-0.763,0.908-1.501,1.903-2.616,2.36c-1.673,0.683-1.723,0.514-2.75,1.96
	c-0.888,1.252-1.739,0.958-2.928,1.641c-1.255,0.723-1.298,1.624-2.92,1.751c-1.518,0.121-1.951,0.46-3.324,0.966
	c-0.795,0.292-2.344,0.852-3.163,0.929c-0.79,0.074-1.344-0.473-2.078-0.567c-0.701-0.092-1.14,0.201-1.806,0.233
	c-1.528,0.072-2.589-0.78-3.223-2.158c-0.55,0.162-0.949,0.615-1.571,0.839c-0.664,0.24-1.007-0.078-1.498,0.005
	c-0.558,0.095-0.992,0.474-1.579,0.564c-0.594,0.092-1.231-0.229-1.897-0.114c0.936,1.37,2.031,2.27,3.313,3.286
	c1.251,0.991,2.118,2.374,3.351,3.349c1.195,0.945,8.085,1.883,5.07,4.587c-1.175,1.053-3.524,0.903-4.996,1.016
	c-0.225,0.198-0.007,0.024,0.119-0.032"/>
<path fill="#020202" d="M32.75,442.628c-3.35-3.172-6.543-7.686-8.207-11.979c-2.085-5.374-3.971-10.904-5.412-16.487
	c-1.339-5.188-2.325-10.639-2.477-16.005c-0.162-5.798,1.792-10.223,5.739-14.402c1.829-1.937,3.762-3.802,5.15-6.097
	c1.313-2.174,1.979-4.586,2.567-7.033h-0.083c-2.1-0.359-3.815-1.056-5.719-1.971c-1.836-0.882-3.815-1.273-5.793-1.696
	c-2.004-0.431-3.877-0.685-5.875-0.07c-1.935,0.596-3.8,1.395-5.741,1.987c-2.285,0.696-4.538,1.433-6.9,1.823
	c3.329-3.627,8.224-5.402,12.573-7.474c0.981-0.469,1.839-1.033,2.534-1.881c0.666-0.811,1.134-1.756,1.976-2.413
	c1.688-1.321,4.514-1.941,6.607-2.2c2.706-0.334,5.238,0.736,7.944,0.887l0.763-0.107c0.26-0.469,0.11-0.883,0.355-1.359
	c2.531-4.93,2.08-10.188-0.101-15.173c-1.062-2.432-2.549-4.857-2.538-7.594c0.008-2.483,1.188-4.817,2.35-6.946
	c2.55-4.678,6.353-8.093,9.741-12.125c3.9-4.64,7.604-9.367,11.671-13.877c3.37-3.736,6.66-7.523,9.707-11.529
	c-0.11,2.445-0.989,4.358-2.077,6.508c-0.514,1.015-1.161,1.991-1.571,3.055c-0.406,1.059-0.403,2.164-0.584,3.268
	c-0.372,2.27-1.527,4.434-2.116,6.673c-0.623,2.369-1.329,4.314-1.437,6.795c-0.093,2.146-0.1,4.888-1.326,6.729
	c-1.389,2.088-3.426,2.635-3.242,5.469c0.13,1.984,0.299,4.062,0.676,6.014c0.445,2.315,1.189,4.271,1.15,6.676
	c-0.077,4.911,1.281,9.625,0.681,14.539c-0.065,0.542-0.621,1.284-0.196,1.625c1.057,0.85,2.096,1.72,2.937,2.791
	c0.916,1.167,1.503,2.562,2.452,3.702c1.926,2.318,5.583,2.692,8.286,3.662c3.051,1.093,6.266,1.676,9.455,2.206
	c3.302,0.549,6.555,1.012,9.801,1.858c3.132,0.818,6.273,1.683,9.51,1.958c0.381,0.031,0.764,0.059,1.145,0.085
	c-0.035,0.068-0.065,0.129-0.088,0.213c-0.753,0.184-1.548-0.155-2.312-0.234c-0.607-0.062-2.059-0.331-2.543-0.073
	c0.53-0.013,1.06,0.321,1.563,0.405c0.53,0.088,1.083,0.075,1.592,0.181c0.915,0.189,2.174,0.315,2.989,0.719
	c-0.933,0.317-1.785-0.205-2.659-0.247c-0.964-0.046-1.85-0.029-2.815-0.123c-1.982-0.191-4.05-0.272-5.997-0.37
	c-3.933-0.195-7.928-0.415-11.891-0.406c-1.964,0.006-4.603-0.251-6.46,0.263c0.399,0.338,0.97,0.517,1.43,0.739
	c-0.375,0.496-1.18,0.071-1.704,0.059c-0.706-0.018-1.355,0.113-2.069,0.077c-1.427-0.07-2.889-0.051-4.294-0.121
	c-2.78-0.142-5.716-0.007-8.494,0.124c-1.341,0.062-3.242-0.204-4.325,0.411l-0.163,0.245c-1.566,4.709-3.674,8.62-6.002,12.982
	c-1.285,2.408-2.048,4.997-3.642,7.241c-1.232,1.735-2.028,3.638-3.106,5.461c-1.297,2.193-0.963,3.672-0.666,6.104
	c0.28,2.286,0.155,4.715-0.124,6.997c-0.284,2.323-0.421,4.646-0.682,6.967c-0.265,2.359-1.24,4.557-1.477,6.932
	c-0.234,2.356-0.511,4.813-0.479,7.182c0.03,2.339,0.888,4.64,0.475,6.98c-0.089,0.503-0.23,0.996-0.381,1.484L32.75,442.628z"/>
<path d="M159.9,189.466c-0.023,0.904,2.759,6.1,3.764,5.959c-1.27,0.477,0.17,1.618,0.766,2.098
	c0.936,0.754,1.652,1.721,2.513,2.566c1.821,1.786,3.668,3.515,5.439,5.361c0.886,0.924,1.938,2.139,3.14,2.65
	c-0.579,1.191,2.988,3.059,3.521,3.933c-1.407,0.938,2.764,3.698,3.416,4.27c-0.073,0.044-0.155,0.063-0.229,0.11
	c0.232,1.523,2.69,2.972,3.861,3.889c-0.054,0.061-0.119,0.178-0.176,0.248c0.887,1.312,2.173,2.284,3.444,3.188
	c1.141,0.812,2.943,1.307,3.85,2.348c-1.915,0.803,0.869,1.988,1.564,2.938c-1.293,0.509-0.17,1.856,0.444,2.302
	c-0.481,0.523,0.206,1.107,0.728,1.263c-0.855,0.739-0.154,1.792,0.15,2.495c0.187,0.434,0.193,0.634,0.242,1.253
	c0.031,0.417,0.104,1.241,0.602,1.306c-0.126,0.485-0.054,1.216,0.447,1.455c-0.203,0.498-0.034,2.492,0.652,2.27
	c-0.073,0.588,0.207,1.311,0.701,1.608c-0.055,1.157,0.271,2.122,0.441,3.233c0.075,0.5,0.424,0.813,0.566,1.275
	c0.156,0.502-0.094,1.271,0.439,1.553c-0.35,0.629-0.047,1.291,0.095,1.927c0.096,0.427,0.13,1.231,0.626,1.5
	c-0.074,0.589,0.285,1.136,0.7,1.519c-0.184,0.678,0.867,2.534,1.471,2.826c-0.064,0.387,0.206,0.896,0.474,1.242
	c-0.191,0.369-0.064,0.799,0.07,1.161c-0.963,0.125-0.803,2.81-1.045,3.56c-0.363,1.125-0.796,2.723-1.225,3.738l-0.062,0.119
	c-4.225,2.705-8.391,4.823-12.769,7.248c-4.743,2.626-10.512,3.894-15.719,5.284c-3.021,0.807-6.144,1.474-9.076,2.568
	c2.691-0.054,5.134-1.624,7.798-1.726c-0.773,0.479-1.582,0.92-2.376,1.364c0.965,0.078,2.04-0.662,2.96-0.822
	c1.144-0.2,2.273-0.368,3.417-0.539c2.562-0.383,5.161-1.097,7.685-1.691c1.275-0.302,2.651-0.474,3.88-0.89
	c-0.003,0.039-0.06,0.17-0.07,0.217c1.169,0.107,2.513-0.268,3.684-0.146c-0.762,1.05,2.113,0.438,2.573,0.314
	c1.282-0.342,2.534-0.503,3.825-0.77c-0.756,0.379-1.373,0.605-1.879,1.341c0.555,0.581,2.57-0.742,3.25-0.981
	c-0.292,0.199-0.674,0.397-0.695,0.785c1.256-0.071,2.23-0.656,3.363-1.121c1.143-0.469,2.432-0.696,3.65-0.867
	c2.277-0.322,4.623-0.062,6.923-0.308c4.794-0.513,9.71-1.056,14.42-2.132c4.407-1.007,8.685-2.979,12.784-4.854
	c1.863-0.853,3.699-1.762,5.598-2.516c1.953-0.775,3.135-2.105,5.37-2.021c4.494,0.168,9.028-0.022,13.485,0.66
	c0.471,0.072,0.938,0.155,1.403,0.259c-2.069-0.731-4.126-1.411-6.213-2.087c-2.043-0.662-4-1.771-6.084-2.241
	c-1.952-0.438-3.589-0.988-5.131-2.311c-1.817-1.559-3.784-2.022-6.148-2.228c-2.325-0.201-5.552-0.205-7.745,0.637l0.061-0.24
	c0.098-0.322,0.405-0.494,0.512-0.812c1.06-3.178,3.166-5.094,5.859-6.963c2.192-1.52,5.69-3.52,5.261-6.68
	c-0.424-3.111-3.884-5.455-6.137-7.247c-2.601-2.069-5.131-4.269-7.82-6.22c-2.219-1.608-4.588-2.6-7.208-3.352
	c0.452,0.372,0.924,0.807,1.061,1.405c-1.176-0.022,0.5,1.872,0.676,2.251c0.338,0.729,0.676,1.963,1.486,2.391
	c-0.266,1-0.146,1.721,0.905,2.357c-0.372,0.299-1.271,0.928-0.54,1.353c-0.185,0.306-0.418,1.81-0.295,2.133
	c-0.314,0.191-0.374,0.512-0.184,0.831c-0.164,0.339-0.207,0.695-0.156,1.06c-0.422,0.338-0.122,0.739-0.093,1.182
	c-0.515,0.202-0.429,1.089-0.384,1.554c-0.418,0.299-0.537,1.025-0.6,1.456c-0.141,0.959-0.077,0.826-0.773,1.326
	c-0.545,0.392-0.769,0.985-1.24,1.364c-0.414,0.333-1.696-0.143-1.527,0.709l0.045,0.112c-0.897-2.021-1.129-4.11-1.285-6.315
	c-0.174-2.457-0.039-4.941-0.451-7.379c-0.395-2.342-1.393-4.421-2.928-6.229c-1.754-2.063-3.913-3.786-6.033-5.455
	c-2.5-1.967-5.083-3.832-7.757-5.559c-2.703-1.744-5.503-3.325-8.288-4.935c-2.693-1.558-5.332-3.197-7.935-4.901
	c-3.105-2.033-6.21-4.062-9.389-5.979c-3.415-2.061-6.894-4.011-10.349-6.003c-2.673-1.541-5.307-3.141-7.916-4.787L159.9,189.466z"
	/>
<path d="M409.789,364.682c3.413-1.035,7.334-0.229,10.541,1.195c0.928,0.413,1.345,1.023,2.087,1.643
	c0.841,0.7,1.63,0.616,2.653,0.793c2.003,0.346,3.984,0.834,5.897,1.535c1.448,0.531,4.445,1.193,5.311,2.595
	c-1.785,0.039-3.742-0.908-5.518-1.218c-1.902-0.331-3.636-0.405-5.573-0.291c-0.945,0.057-2.122,0.021-2.998,0.413
	c0.913,0.214,1.965,0.045,2.946,0.143c0.979,0.098,1.955,0.427,2.958,0.435c1.954,0.014,3.691,0.374,5.572,0.977
	c0.941,0.302,2.079,0.34,2.831,0.958c-2.544,0.188-5.158-0.05-7.711-0.064c-2.269-0.014-5.38-0.724-7.467,0.295
	c-1.988,0.969-3.624,2.528-5.694,3.475c-1.107,0.506-2.251,0.953-3.308,1.563c-0.991,0.573-1.798,1.435-2.81,1.962
	c-1.111,0.578-2.414,0.689-3.578,1.139c-1.115,0.433-2.158,1.05-3.246,1.549c-2.373,1.088-4.64,1.789-7.203,2.283
	c-2.473,0.477-4.806,1.091-7.195,1.883c-2.311,0.766-5.02,0.94-7.442,1.131c-1.249,0.099-2.573,0.01-3.805-0.228
	c-1.174-0.226-2.251-0.95-3.434-1.062c-1.072-0.103-2.284,0.331-3.26,0.749c-0.901,0.386-2.026,1.574-3.013,1.59
	c-0.413,0.007-0.754-0.117-1.027-0.45c-1.445,1.092-4.305,1.068-6.004,1.255c0.05-0.239-0.059-0.336,0.08-0.622
	c-2.184,0.528-4.362,1.66-6.469,2.474c-1.187,0.459-2.427,0.582-3.602,0.981c-1.2,0.408-2.361,1.054-3.482,1.554
	c-1.034,0.462-2.43,1.871-3.619,1.48c1.08-0.491,1.979-1.201,2.994-1.798c1.263-0.741,2.66-1.017,4.018-1.522
	c2.564-0.955,5.242-2.764,7.4-4.438c4.235-3.284,8.881-6.073,13.035-9.455c1.097-0.893,1.911-1.591,1.671-3.098
	c-0.241-1.504-0.848-2.395,0.521-3.565c-0.908,0.121-1.209-0.518-1.848-0.98c-0.6-0.435-1.167-0.493-1.811-0.775
	c-1.289-0.563-2.395-1.629-3.547-2.386c-2.21-1.451-4.291-3.479-6.988-3.753c-0.836-0.085-1.756-0.051-2.552-0.402
	c-0.784-0.347-0.933-0.863-1.534-1.437c-1.012,0.609-1.137-0.068-2.003-0.355c-0.581-0.193-1.079-0.075-1.751-0.321
	c-1.354-0.498-2.772-0.928-4.297-1.083c-3.213-0.327-6.398-0.695-9.648-1.002c-1.72-0.162-2.941,0.067-4.818-0.261l-0.51-0.073
	c-4.072-0.549-7.949-0.707-11.832-2.179c-0.864-0.328-1.646-0.861-2.528-1.139c-0.986-0.31-2.031-0.29-2.995-0.704
	c-1.701-0.732-3.52-2.005-5.061-3.044c-1.982-1.335-3.982-2.645-5.516-4.498c2.248,1.414,4.549,2.412,7.025,3.349
	c2.451,0.927,4.718,2.255,7.162,3.191c5.05,1.937,11.16,3.035,16.572,3.153c6.909,0.15,13.829,0.409,20.74,0.482
	c6.951,0.074,13.872-0.286,20.822,0.083c2.521,0.135,4.754,0.521,6.895,1.943c2.201,1.463,4.028,3.42,6.101,5.049
	c0.388,0.305,0.781,0.6,1.177,0.892l0.547-0.656c1.818-2,2.736-4.257,4.301-6.446c1.825-2.556,4.033-4.752,6.266-6.947
	c2.299-2.261,4.42-4.735,6.855-6.85c2.684-2.329,5.629-4.347,8.352-6.633c1.756-1.476,3.615-2.847,4.848-4.816
	c1.366-2.184,2.474-4.138,4.394-5.914c2.133-1.973,3.985-4.098,5.868-6.307c1.956-2.294,4.181-4.018,6.396-6.015
	c2.256-2.034,3.194-5.142,4.074-7.957c1.087-3.478,1.378-6.899,1.657-10.502c0.047-0.604,0.105-1.205,0.17-1.807
	c2.863,4.248,4.314,8.403,4.406,13.568c0.107,6.064-0.79,12.546-3.978,17.812c-2.623,4.335-6.424,8.182-9.762,11.978
	c-3.854,4.385-8.602,7.28-13.253,10.705c-4.746,3.493-8.038,7.812-10.617,13.075c-0.283,0.579-0.561,1.161-0.838,1.744V364.682z"/>
<path d="M267.287,348.691c0.998,0.872,0.803,2.211,2.026,2.593c1.292,0.403,6.39,11.719,5.669,13.041
	c-0.488,0.096,1.238,2.372,0.838,2.12c-0.096,0.147-0.205,0.456-0.223,0.625c0.75,0.451,0.613,1.999,0.208,2.611
	c1.281,0.694,2.848,0.383,3.969,1.344c1.059,0.91,1.654,1.764,2.982,2.414c2.58,1.265,5.396,1.812,8.165,2.495
	c2.941,0.725,5.705,1.937,8.681,2.586c3.113,0.682,5.8,0.422,8.914-0.15c1.759-0.324,3.628-0.636,5.414-0.294
	c1.829,0.351,2.452,1.56,3.52,2.917c-0.815-0.602-2.603-1.582-3.651-1.015c-1.331,0.718,0.541,1.19,1.321,1.391
	c2.398,0.613,4.938,1.944,7.402,2.051c1.514,0.064,3.013-0.073,4.53,0.049c-0.601,0.74-1.916,1.121-2.857,1.061
	c0.777,0.511,1.939,0.089,2.521,0.734c-1.903,0.738-4.142,0.368-6.147,0.516c-2.11,0.154-4.27,0.143-6.387,0.116
	c-2.153-0.026-4.163-0.257-6.241-0.799c-1.992-0.521-4.008,0.04-5.972-0.587c-3.541-1.129-7.09-2.262-10.635-3.377
	c-3.75-1.181-7.563-2.251-11.474-2.704c-2.216-0.258-3.908,0.136-5.979-0.839c-2.082-0.98-3.581-0.235-5.071,1.386
	c-0.277,0.303-0.384,0.933-0.794,0.942c-6.475,0.159-13.02,1.106-19.491,0.801c-7.001-0.331-13.318-3.339-20.169-4.387
	c-6.618-1.012-12.234,1.283-18.485,2.963c-5.676,1.523-11.747,0.991-16.145-3.279c-4.484-4.355-3.071-9.057,1.391-12.648
	c0.55-0.44,1.114-0.865,1.677-1.289c-1.65-0.777-4.355-0.664-6.153-0.746c-2.248-0.103-4.521,0.003-6.772-0.001
	c-4.479-0.008-8.982,0.372-13.433,0.599c-2.472,0.126-7.398,0.37-7.398,0.37l0.668-0.282c5.177-2.405,10.125-2.848,15.696-3.73
	c5.905-0.936,10.064-4.365,15.44-6.531c5.393-2.171,9.716-0.002,14.263,2.888c4.22,2.684,7.164,1.112,10.407-2.365
	c4.018-4.312,6.171-9.446,5.599-15.369c-0.494-5.101-1.668-10.985-4.319-15.435c-2.549-4.283-8.262-7.747-8.738-13.035
	c-0.527-5.862,6.505-9.022,11.147-10.269c5.345-1.433,11.031-1.996,16.479-2.931c2.635-0.45,5.857-1.368,8.544-0.96
	c2.074,0.316,0.764,1.393-0.383,2.209c-1.041,0.739-2.163,1.374-3.262,2.023c1.451,0.293,2.875-0.14,4.328,0.075
	c1.266,0.186,2.456,0.688,3.692,0.994c1.682,0.412,6.182,0.393,6.805,2.305c0.175,0.537-0.203,1.095-0.039,1.629
	c0.164,0.544,1.144,0.301,1.131,1.435s-0.998,1.382-0.985,1.924c0.022,0.933,0.925,1.003,0.733,2.029
	c-0.158,0.847-0.657,1.067-0.648,1.902c0.009,0.825,0.396,1.58,0.175,2.508c1.847,0.504-0.007,3.087-0.693,3.666
	c0.626,0.635,0.093,0.938-0.035,1.535c-0.055,0.257-0.269,0.505-0.319,0.827c-0.03,0.194,0.35,0.494,0.373,0.717
	c0.065,0.697-0.293,0.642,0.07,1.369c0.25,0.497,0.717,0.791,0.947,1.304c0.531,1.188-0.218,2.23,0.344,3.275
	c0.488,0.908,1.448,1.6,1.981,2.533c0.647,1.136,0.636,2.033,0.966,3.19c0.322,1.13,1.075,1.719,1.195,2.938
	c0.048,0.505-0.116,1.438,0.083,1.848c0.233,0.47,0.962,0.627,1.275,1.29c0.571,1.21-0.09,2.154,0.213,3.306
	c0.166,0.631,0.766,1.137,0.837,1.864c0.072,0.715-0.41,1.201-0.423,1.809c-0.022,1.176,0.945,2.457,0.823,3.784L267.287,348.691z"
	/>
<path d="M103.645,326.822c-2.011,1.176,0.388,3.796,0.48,5.353c-2.723,0.464,0.487,4.096,1.156,4.772
	c-0.657,0.842-1.281,1.937-0.611,2.983c0.894-0.065,1.885-0.503,2.834-0.464c-0.158,1.063-5.812,5.469-2.122,5.624
	c-0.828,1.327-3.403,3.65-1.163,4.856c-0.562,0.4-0.622,1.096-0.059,1.5c-0.48,0.604-0.133,1.523,0.562,1.835
	c0.807,0.361,1.324-0.42,2.162-0.31c-1.765,1.665-4.198,5.075-0.152,5.218c-1.099,0.448-1.467,2.616-1.54,3.676
	c-0.099,1.455,0.814,2.554,2.265,2.58l-0.062,0.001c-1.652,1.022-0.232,5.751,2.075,4.737c-0.843,0.847-2.9,3.005-0.65,3.276
	c1.108,0.132,3.278-0.887,4.209-1.467c-0.169,0.374-0.144,0.763-0.112,1.182c0.231,0.035,0.307,0.142,0.559,0.14
	c-1.026,0.696-2.689,1.867-3.123,3.064c-0.537,1.482,0.288,3.299,1.874,3.56c-1.771,2.103,0.064,4.204,1.807,5.382
	c-0.94,2.253,2.088,2.958,1.735,5c-0.254,1.479-3.596,1.053-4.915,1.201c-1.92,0.215-3.919,0.279-5.853,0.422
	c-1.916,0.141-3.82-0.01-5.724,0.282c-1.583,0.243-4.187,0.228-5.358,1.519c-0.729,0.801-0.232,1.467-0.569,2.341
	c-0.313,0.813-1.378,0.992-0.315,1.984c-3.049,2.159,1.352,3.104,2.965,3.646c-0.105,0.729-0.464,1.17-0.408,1.94
	c0.084,1.153,0.524,0.952,1.225,1.418c0.678,0.45,0.746,0.833,1.342,1.362c0.683,0.606,1.062,0.34,1.842,0.529
	c0.734,3.292,6.067,1.072,7.996,0.559c3.234-0.861,6.562-1.681,9.641-3.013c1.416-0.613,2.938-1.141,4.51-1.067v0.125
	c-0.068,0.662,0.018,2.014,0.948,1.612c-0.946,0.554-0.288,2.194,0.764,2.138c-2.226,0.207,0.06,2.18,0.829,2.614
	c1.245,0.703,2.582,0.804,3.787,1.392c-0.861,0.066-1.857,0.552-2.539,1.088c-0.668,0.526-1.085,1.657,0.321,1.556
	c-2.64,1.86,1.366,3.458,2.997,3.877c-0.93,0.928-0.352,1.646,0.535,1.972c-0.9,0.035-0.32,1.232,0.156,1.623
	c0.668,0.547,1.102,0.273,1.901,0.118c-0.624,1.482-1.233,1.838,0.405,2.86c1.172,0.732,2.223,1.148,3.605,1.271
	c-1.85,0.23-1.188,2.106,0.16,2.533c1.158,0.368,2.879,0.288,4.081,0.213c-0.608,0.314-2.356,0.247-2.459,1.044
	c-0.108,0.849,1.585,1.712,2.241,1.607c-1.312,2.355,3.084,3.061,4.492,2.623c-1.404,1.257,1.5,2.447,2.616,1.872
	c0.225,0.872,0.143,2.089,1.386,2.003c0.099,1.437,2.084,2.91,3.381,2.125c-1.038,1.441,1.354,4.65,2.999,3.75
	c-0.154,1.855-1.032,5-0.3,6.743c1.064,2.534,3,0.077,3.936-1.085c0.582-0.724,1.23-1.385,1.877-2.053l0.125-0.124
	c-0.229,1.946-0.498,4.072-0.889,6.062c-0.395,2.011-0.311,4.078-0.344,6.167c1.762-0.126,2.402-3.501,3.234-4.668
	c1.309-1.838,2.278-3.869,3.469-5.803c0.216,1.173-0.123,2.737-0.219,3.928c-0.102,1.289-0.137,2.596-0.26,3.875
	c-0.181,1.862-0.959,5.728,0.163,7.293c0.888-0.361,1.032-1.404,1.494-2.143c0.978-1.566,1.888-2.655,2.448-4.467
	c0.516-1.662,0.707-4.241,1.629-5.611c0.463,1.933-0.107,4.135-0.105,6.174c0.002,1.748-0.578,4.473,0.877,5.762
	c1.65-0.979,2.445-4.112,2.768-5.887c0.449-2.476,0.855-4.804,1.136-7.298c0.353,1.954,0.361,3.896,0.491,5.87
	c0.065,0.987,0.062,3.782,1.489,3.951c1.436,0.17,2.141-2.552,2.352-3.512c0.771-3.513,0.1-7.359,0.39-10.945v0.125
	c0.756,1.648,1.054,3.307,1.483,5.051c0.216,0.879,0.668,3.054,1.989,2.618c1.269-0.417,1.141-3.19,1.068-4.156
	c-0.227-3.001-1.214-6.035-1.78-8.993c1.569,0.726,2.304,1.589,4.226,1.457c-1.252-1.731-2.838-3.299-3.809-5.218
	c-0.994-1.969-1.844-3.948-3.012-5.844c-1.996-3.24-3.453-6.771-5.414-10.003c-1.749-2.883-4.996-5.107-7.37-7.503
	c-2.646-2.669-5.531-5.061-7.935-7.962c-2.248-2.715-5.014-5.319-5.945-8.881v-0.062c1.523-1.068,1.621-2.892,2.994-4.201
	c1.559-1.485,1.264-3.256,3.734-2.813c-0.137-0.658-0.271-1.393-0.597-1.988c-1.646-3.014-5.558-0.641-8.13-0.906
	c-2.726-0.281-3.805-3.734-4.729-5.899c-1.249-2.921-1.608-5.945-2.138-9.049c-0.556-3.269-1.106-6.475-1.383-9.783
	c-0.272-3.277-0.875-6.508-1.186-9.78c-0.309-3.239-0.629-6.227-1.947-9.24c-2.469-5.646-4.953-11.441-6.787-17.33
	c-1.793-5.765-3.852-11.739-6.58-17.127h-0.125c0.002,3.597,0.299,6.769,0.979,10.111c-1.23-1.225-2.114-3.458-3.059-4.993
	c-3.963-6.44-7.646-13.358-12.793-18.879c-0.753,0.766,0.537,2.903,0.925,3.747c1.138,2.481,2.43,5.018,3.798,7.391
	c0.931,1.617,1.701,3.324,2.723,4.885c0.69,1.055,2.369,3.011,2.156,4.345c-1.115-0.422-2.727-3.078-3.494-4.061
	c-1.217-1.56-2.464-3.144-3.752-4.655c-1.293-1.517-2.207-3.219-3.389-4.82c-2.02-2.737-4.705-5.647-7.82-6.93
	c-0.169,1.179,1.114,2.73,1.728,3.704c1.495,2.383,3.173,4.772,4.892,7.002c1.167,1.513,2.159,3.13,3.295,4.662
	c0.856,1.155,2.805,2.775,2.791,4.349c-1.406-0.881-2.688-2.658-3.787-3.93c-2.051-2.371-3.973-4.728-6.237-6.928
	c-1.149-1.117-2.198-1.782-3.562-2.55c-0.953-0.535-2.736-2.459-3.871-1.799c0.195,1.082,1.367,2.171,1.912,3.16
	c1.289,2.337,3.152,3.708,4.906,5.627c1.986,2.175,3.818,4.791,5.662,7.062h-0.062c-1.225,0.132-2.438-1.928-3.387-2.629
	c-2.278-1.679-4.268-3.789-6.688-5.256c-2.043-1.239-5.245-2.44-7.589-2.845c-0.469,1.115,1.879,2.581,2.605,3.291
	c1.92,1.876,3.778,3.489,5.895,5.18c1.508,1.204,5.998,3.683,6.08,5.744c-0.953-0.285-1.971-1.012-2.951-1.393
	c-2.171-0.842-4.192-1.824-6.277-2.875c-1.277-0.642-4.765-2.613-6.105-1.81c1.05,2.066,2.816,3.443,4.682,4.714
	c1.963,1.337,3.762,3.626,6.002,4.512c-1.145-0.278-2.294-0.195-3.514-0.385c-1.041-0.163-2.456-1.169-3.42-0.468
	c0.881,1.624,3.44,4.372,5.188,4.965c-0.258,0.09-0.42,0.313-0.686,0.4c-0.075,0.887,1.85,2.182,2.604,1.978H103.645z"/>
<path fill="#020202" d="M302.983,409.15c-0.057-0.051-0.745-0.827-1.16-1.208c-2.176-1.996-5.259-2.221-8.026-2.778
	c-3.008-0.605-5.937-1.535-8.957-2.082c-5.771-1.047-11.522-2.112-17.39-1.323c-2.923,0.393-5.4,1.366-7.896,2.918
	c-2.438,1.517-3.834,1.811-6.455,0.518c-2.811-1.386-5.404-2.164-8.415-0.842c-2.47,1.085-4.557,2.59-7.226,3.233
	c-5.219,1.259-10.324,0.997-15.12,3.723c1.59,0.249,3.58-0.081,5.18-0.096c3.153-0.028,6.455-0.112,9.644-0.137
	c1.59-0.013,3.165,0.122,4.752,0.222c1.561,0.099,3.277,0.623,4.742,0.605c0,0-3.825,1.807-3.854,3.831
	c-0.024,1.774,2.023,3.583,1.552,5.311c-0.276,1.009-1.546,1.588-2.333,2.134c-0.849,0.588-1.615,1.258-2.378,1.951
	c-1.772,1.607-2.912,3.388-4.004,5.503c-1.035,2.007-2.09,4.212-2.359,6.474c-0.249,2.09-0.389,4.146-0.908,6.201
	c-0.542,2.146-1.087,4.362-1.708,6.486c-0.615,2.107-1.047,4.254-1.676,6.354c-0.623,2.085-1.348,3.875-2.46,5.743
	c-1.192,2.004-2.426,2.537-4.443,3.566c-0.47,0.24-0.921,0.515-1.365,0.798c1.385,2.161,5.648-2.072,6.688-3.008
	c0.51-0.46,0.951-1.05,1.404-1.563c0.283,2.414-0.343,5.215-1.52,7.293c0.024,0.019,0.047,0.039,0.068,0.061
	c0.806-0.092,1.615-1.624,2.056-2.276c0.645-0.954,0.788-2.904,1.776-3.543c0.533,0.548,0.05,1.521,0.385,1.896l0.332,0.162
	c0.121-0.231,0.271-0.434,0.435-0.637c0.581-0.722,1.383-1.138,2.038-1.766c0.647-0.62,1.058-1.443,1.523-2.196
	c0.889-1.433,2.45-1.554,3.918-2.21c1.689-0.756,2.381-1.421,3.27-3.014c0.554-0.993,1.145-0.713,2.129-0.873
	c0.771-0.125,1.536-0.61,2.188-1.031c0.604-0.389,1.017-0.854,1.37-1.482c0.337-0.6,0.446-1.473,1.023-1.894
	c0.637-0.464,1.48-0.296,2.104-0.861c0.521-0.473,0.95-1.208,1.373-1.772c0.528-0.706,0.751-1.403,1.106-2.19
	c0.402-0.892,0.924-0.957,1.754-1.359c0.627-0.305,1.308-0.786,1.688-1.39c0.427-0.68,0.235-1.55,0.638-2.216
	c0.396-0.657,1.227-0.72,1.727-1.271c0.586-0.646,0.494-1.595,0.979-2.282c0.432-0.611,1.243-0.685,1.679-1.278
	c0.468-0.637,0.403-1.648,0.464-2.398c1.267-0.239,5.232-3.232,3.793-4.716c0.618-0.312,7.203-1.053,6.176-2.733
	c1.913-0.204,3.63-1.835,5.075-2.571l0.078-0.086c0.14,3.665-0.396,7.726,1.471,11.045c0.92,1.635,2.26,2.983,3.198,4.605
	c0.884,1.527,1.222,3.199,1.643,4.892c0.935,3.761,2.965,7.38,5.113,10.582c2.055,3.062,5.099,5.296,7.382,8.188
	c2.469,3.131,4.985,4.681,8.971,5.191c0.439,0.057,0.804,0.098,1.344,0.166s-0.046-0.877,0.043-1.297
	c1.607,1.407,3.235,2.736,4.643,4.352c1.008,1.156,2.789,3.382,3.806,1.023c0.458-1.061,0.497-2.319,0.574-3.454
	c2.331,0.978,2.627-3.628,2.091-4.919c0.746,0.202,0.902-1.527,0.965-2.033c0.119-0.967-0.462-1.682-0.426-2.549
	c1.838,0.139,0.241-4.466,0.022-5.216c0.069-0.013,0.068,0.073,0.133,0.056c0.595-1.467,0.192-2.804-0.334-4.232
	c-0.242-0.66-0.529-1.136-0.56-1.733c-0.037-0.747,0.037-1.36-0.273-2.108c-0.279-0.673-0.754-1.475-1.167-2.087
	c1.018-0.848-0.905-3.295-1.552-3.925c1.222-0.53-0.009-2.751-0.73-3.247c0.602-0.787,1.093-1.216,0.453-2.154
	c-0.352-0.515-1.139-1.374-1.751-1.538c0.98-1.145,0.217-2.314-0.077-3.461c-0.155-0.609,0.256-1.232,0.084-1.886
	c-0.208-0.794-0.848-0.651-1.251-1.178c-0.034,0.05-0.046,0.161-0.073,0.218c0.091-0.787,0.456-1.285-0.05-2.08
	c-0.384-0.604-0.981-0.756-1.559-1.106c0.1-0.077,0.196-0.318,0.304-0.4c-0.622-0.631-0.739-1.617-1.552-2.07
	c0.472-1.104-1.235-2.581-1.885-3.356c-0.976-1.167-1.829-1.448-3.104-1.438l-0.04-0.005c0.242-0.709,0.922-2.454,1.555-2.767
	c0.942-0.466,3.326,0.067,4.334,0.216c2.611,0.384,5.261,0.975,7.884,1.228c2.638,0.254,5.239,0.824,7.896,0.939
	c1.113,0.048,2.354,0.187,3.457,0.003c1.098-0.184,2.094-0.812,3.188-1.066c2.147-0.499,5.946,0.456,7.349-1.646
	c-0.693-0.113-1.662,0.688-2.175-0.038c0.874-0.309,2.346-0.8,2.79-1.616c-0.885-0.271-2.298,0.369-3.207,0.599
	c-1.115,0.281-1.976,0.403-3.152,0.131c0.585-0.549,1.402-0.585,1.923-1.172c-0.861-0.28-2.058,0.164-2.938,0.294
	c-0.469,0.069-1.145,0.356-1.612,0.204c-0.413-0.136-0.514-0.599-0.893-0.773c-0.875-0.407-2.268-0.029-3.205,0.041
	c-1.29,0.097-2.6,0.201-3.879,0.381c-1.041,0.146-1.814,0.636-2.8,0.975c-1.242,0.428-2.354,0.344-3.644,0.245
	c-2.526-0.195-4.956-0.906-7.475-1.195C307.396,410.61,303.039,409.201,302.983,409.15z"/>
<path d="M63.371,244.343c2.534,1.745,5.369,2.826,5.409,6.218c0.035,2.892,0.231,4.803-1.173,7.406
	c-1.258,2.333-3.018,3.914-4.812,5.804c-1.458,1.537-3.358,3.682-3.362,5.822c-0.006,2.969,0.684,4.34,2.63,6.466
	c0.189,1.314,1.337,4.713,3.202,3.614c-0.556-0.579-2.342-1.369-1.414-2.216c0.566,0.312,1.082,0.8,1.535,1.275
	c-0.319-0.533-0.672-1.11-0.735-1.764c0.008,0.027,0.348,0.408,0.523,0.641c1.946-0.766,2.124-0.875,0.024-1.253
	c1.262-1.298-1.881-4.699-1.635-6.71c1.144,0.561,5.667,3.77,5.452,0.84c0.579,1.09,0.284,3.37,1.369,3.929
	c1.113-2.438-0.172-4.945-2.645-5.71c-2.059-0.638-4.572-0.628-2.915-3.367c1.082-1.787,2.838-3.294,4.095-4.975
	c2.422-3.232,7.041-5.324,6.801-9.911c0.329-0.008,0.529-0.247,0.909-0.211c-0.018-0.232,0.069-0.521,0.047-0.751
	c0.981,0.259,2.015,0.746,2.369-0.646c0.573,0.169,1.169,0.519,1.705,0.265c-0.25-0.309-0.376-0.81-0.554-1.061
	c2.393,0.498,5.23,2.16,7.643,2.349c-0.493-0.564-1.164-1.124-1.408-1.86c3.439-0.532,6.479,2.088,9.928,2.265
	c5.947,0.303,10.382,6.598,14.501,10.406c2.152,1.991,3.514,4.664,6.022,6.265c1.148,0.732,2.521,1.662,3.876,1.917
	c1.589,0.298,2.829-0.355,1.518-1.93c0.994,0.36,1.744,0.69,2.845,0.546c0.361-2.768-7.485-6.045-9.466-7.257
	c-4.884-2.988-9.161-6.837-13.588-10.425c-3.408-2.763-6.733-5.786-9.324-9.363c-4.741-6.545-12.202-11.882-17.851-17.562v-0.02
	c0.52,0.194,1.033,0.404,1.54,0.634c2.043,0.929,4.302,2.78,6.361,0.941c2.233-1.995,1.578-3.281,4.981-2.317
	c3.513,0.995,3.996-0.109,6.433-2.105c1.969-1.612,4.857-0.659,6.573-2.816c0.723-0.907,0.902-2.154,1.721-2.999
	c0.846-0.874,2.018-1.031,3.042-1.595c2.283-1.255,2.043-3.7,3.694-5.459c0.824-0.879,1.997-1.377,2.713-2.375
	c0.716-0.996,0.665-2.027,1.013-3.138c0.758-2.437,3.299-2.614,4.67-4.585c1.384-1.987,1.355-4.108,3.122-5.972
	c2.129-2.246,2.924-4.104,2.488-7.235c1.719-1.091,2.042-1.709,2.991-3.406c0.741-1.322,1.946-1.736,2.852-2.874
	c1.111-1.399,0.154-2.501,1.337-3.901c1.243-1.474,6.296-5.995,2.907-7.484c1.01-2.793,4.595-4.768,5.877-7.658
	c-0.886-0.702-2.373-0.819-2.547-0.798c0.813-0.267,2.987-3.87,3.922-4.692c1.414-1.244,3.385-3.265,3.584-5.2
	c-2.511,0.016-4.547,2.349-7.002,2.344c1.513-3.129,5.532-4.705,8.054-6.92c2.432-2.133,6.554-5.877,6.79-9.32
	c-2.534,1.986-5.391,3.765-8.055,5.575c-2.195,1.49-4.553,2.791-6.8,4.219c-1.187,0.753-2.996,2.352-4.462,2.294
	c0.14-1.651,1.965-2.634,3.058-3.647c3.437-3.184,7.035-5.894,9.719-9.764c2.07-2.988,5.014-6.047,5.251-9.915
	c-1.506,1.24-2.381,3.127-3.724,4.548c-4.258,4.502-8.597,8.588-13.579,12.277c-3.298,2.44-6.637,6.226-10.809,7.141
	c0.569-2,2.612-3.576,3.975-5.048c3.853-4.162,7.221-8.535,10.714-12.986c1.64-2.09,3.847-4.56,4.728-7.075
	c0.698-1.997,0.345-3.819,0.37-5.866c-0.814,2.53-2.319,4.635-3.763,6.866c-6.416,9.921-15.084,18.752-24.981,25.233
	c0.282-2.428,1.708-3.616,3.284-5.31c7.422-7.975,15.396-20.615,13.82-31.903c-1.452,2.725-2.194,5.32-2.834,8.317
	c-1.438,6.744-6.953,13.198-11.223,18.438c-1.726,2.117-3.562,4.065-5.495,5.99c-1.556,1.549-3.19,4.356-5.527,4.657
	c1.684-1.784,3.394-3.604,4.853-5.578c3.021-4.086,5.357-9.651,7.024-14.436c1.568-4.497,2.766-9.229,0.591-13.749
	c-1.079,2.735-1.968,5.231-2.714,8.099c-1.797,6.922-5.78,13.214-9.287,19.347c-1.605,2.808-3.283,5.658-5.157,8.298
	c-1.578,2.225-3.635,3.504-5.728,5.201l-0.039,0.009c4.065-4.027,6.83-9.171,6.889-14.987c-1.538,1.873-1.982,3.733-2.951,5.87
	c-0.966,2.126-2.787,4.254-4.243,6.075c-2.516,3.149-4.594,6.908-7.729,9.523c-2.959,2.469-5.962,5.026-9.131,7.214
	c-3.292,2.272-6.181,4.912-9.445,7.255c-3.441,2.473-5.044,6.496-7.838,9.594c-1.276-1.49,1.419-3.785,0.985-5.532
	c-0.45-1.813-4.326-2.077-5.69-1.154c2.455-3.113-0.112-9.205-4.379-6.572l0.081-0.081c0.482-1.295,1.326-2.62,1.824-3.909
	c0.707-1.831,1.992-7.038-1.159-7.477c-2.588-0.36-5.6,4.684-7.126,6.297c0.796-2.062,1.765-3.944,2.871-5.852
	c1.2-2.072,4.634-10.196,0.583-11.339c-2.014-0.568-4.184,2.723-5.182,3.978c-1.891,2.377-3.696,4.815-5.63,7.157
	c0.494-2.842,1.216-5.525,2.176-8.242c0.997-2.822,1.809-5.674,1.651-8.703c-0.095-1.812-0.651-6.089-3.271-5.918
	c-2.658,0.173-4.129,5.126-4.858,7.065c-1.169,3.11-2.189,6.27-3.412,9.361c0.054-3.127,0.773-6.41,1.244-9.542
	c0.215-1.412,0.207-2.878,0.36-4.32c0.146-1.354-0.271-2.958,0.14-4.282c-0.497-0.5-1.03-0.837-1.576-0.773
	c-1.088,1.212-1.942,2.141-2.556,3.787c-1.311,3.515-2.594,6.876-3.649,10.498c-0.836,2.875-1.38,5.761-4.166,7.392
	c-0.121-1.64-0.042-3.291,0.121-4.918c0.284-2.845,0.031-5.668-0.318-8.498c-0.262-2.115-0.74-5.767-2.275-7.349
	c-0.165,0.051-0.174,0.047-0.285,0.044c-1.028,1.369-1.482,3.261-1.873,4.938c-0.833,3.579-0.81,7.864-0.809,11.512
	c0,3.832-0.405,7.693-0.347,11.593c-0.462-0.714-1.315-0.945-2.048-0.606c-1.154-1.163-2.461-4.305-3.853-4.757
	c-0.204,2.215,0.563,4.91,1.111,7.044c0.563,2.199,1.807,3.79,2.975,5.698c1.219,1.991,1.471,2.857,1.406,5.179
	c-0.059,2.134,0.855,3.815,2.327,5.309c1.071,1.088,2.821,3.174,4.288,3.662c1.061,3.279,4.248,6.03,5.869,9.163l0.014-0.027
	c-2.436,0.015-4.202,0.286-6.462,1.255c-3.284,1.408-5.805,3.622-9.129,4.839c-3.193,1.171-8.95,3.708-8.941,4.916
	c2.318-0.912,5.922-1.957,8.418-1.417c-1.431,1.312-6.72,1.278-6.725,3.389h0.009c3.87,0.525,8.646,0.11,12.284,1.695
	c3.605,1.573,7.34,3.935,10.277,6.542c3.157,2.804,5.756,6.045,9.185,8.582c3.893,2.883,7.989,5.479,11.863,8.406
	c4.083,3.083,8.13,5.838,13.057,7.245v-0.04c-0.011,2.287-1.074,3.745-2.723,5.361c-2.56,2.51-7.666,6.744-6.994,10.783
	c0.376,2.256,2.067,2.704,3.641,3.972c1.431,1.154,2.54,2.971,4.127,0.868c-1.211,0.753-2.992-0.517-1.412-1.315
	c0.273,0.22,0.586,0.274,0.811,0.596c-0.515-1.725-2.144-1.175-3.021-2.344c-1.343-1.787,0.701-2.498,2.115-1.853
	c0.576,0.263,0.956,0.928,1.576,1.104c0.568,0.161,1.214-0.254,1.678-0.113c1.204,0.364,1.552,1.87,2.156,2.925
	c1.426-1.513-0.835-2.966-1.295-4.433c0.852,0.198,2.481,1.285,2.417,2.36c1.077-1.963-0.349-3.337-2.23-3.536
	c-1.571-0.167-3.757-0.753-5.3-0.64c-1.281-2.145,0.805-4.67,2.145-6.3c0.787-0.956,4.213-5.039,5.389-4.635L63.371,244.343z"/>
<path d="M386.084,283.84c-1.958-0.592-3.77,1.875-5.897,1.058c-0.92,1.621-4.817,3.572-6.374,2.17
	c-1.397,0.939-4.737,4.425-6.169,2.506c-1.035,0.904-2.152,2.789-3.606,3.354c-0.811,0.314-1.882-0.181-2.516,0.026
	c-0.789,0.258-1.723,1.326-2.586,1.751c-1.816,0.894-3.855,0.867-5.43,1.919c-1.279,0.855-1.928,3.301-4.031,2.034
	c-1.223,1.358-2.578,1.269-4.06,1.917c-1.645,0.72-1.889,1.619-3.474,2.53c-1.301,0.749-2.839,0.54-4.136,1.105
	c-1.365,0.597-2.962,1.622-3.748,1.473c-0.786-0.15,0.24-0.81,0.467-1.194c-1.993,1.681-4.363,2.781-6.63,4.097
	c-3.163,1.835-4.912-0.225-3.133-3.628c-4.84,1.457-6.654,10.592-12.664,9.682c0.046-0.664-0.361-1.082-0.089-1.819
	c-3.362,0.532-5.716,4.416-9.192,5.356c-0.14-0.197-0.316-0.411-0.488-0.584c0.428-1.895,1.228-3.559,2.576-5.11
	c-5.078,2.955-9.645,5.456-14.25,9.431c3.81-4.083,9.718-9.358,11.051-14.779c-3.171,0.356-6.932,4.167-9.57,6.026
	c-3.049,2.146-6.062,4.122-8.856,6.569c2.392-3.125,5.395-5.481,8.11-8.316c2.723-2.842,5.268-7.244,8.921-8.957
	c-3.291,2.141-7.19,3.527-10.661,5.985c-3.634,2.573-7.135,5.012-11.143,6.812c3.062-3.072,6.844-5.683,10.067-8.707
	c3.156-2.959,7.358-4.342,10.373-7.275c-2.06,0.436-4.935,1.41-7.214,0.98c1.974-1.145,4.477-2.348,6.699-3.549
	c2.346-1.267,3.178-1.135,5.687-2.423c-1.575,0.248-1.271,0.337-2.847,0.746c-1.741,0.449-3.939,0.591-5.627,0.952
	c-3.137,0.669-7.894,1.968-11.221,0.758c0.833-1.638,9.074-2.757,11.361-3.304c4.006-0.959,8.28-0.813,12.01-2.511
	c6.307-2.87,11.977-7.108,18.108-10.332c3.229-1.696,6.477-2.97,9.548-4.983c3.363-2.206,6.284-4.327,10.231-5.177
	c7.021-1.51,14.226-3.322,21.104-5.411c3.261-0.989,6.358-2.338,9.534-3.566c2.674-1.033,6.763-3.542,8.746-4.188l0.34-0.746
	c1.743-3.77,4.283-4.104,7.408-6.259c2.825-1.95,4.829-5.246,6.314-8.247c3.104-6.272,6.456-12.424,9.457-18.747
	c5.931-12.493,15.656-21.389,24.928-31.292c2.495-2.664,4.959-5.354,6.226-8.875c1.532-4.266,0.515-8.732,0.566-13.127
	c2.38,4.841,3.233,11.184-0.216,15.862c2.146-1.447,5.152-7.753,5.931-9.754c-0.405,2.321-2.08,6.564-3.489,8.399
	c3.878-2.561,7.212-7.126,10.499-10.453c-1.692,5.255-7.478,8.561-9.702,13.42c3.214-0.102,6.723-4.519,9.426-6.139
	c-1.81,3.946-9.748,7.489-9.409,11.578c2.349,0.257,4.906-1.358,6.969-1.547c-1.931,3.473-6.092,5.823-8.61,8.855
	c0.851-0.041,1.791,0.136,2.643,0.095c0.058,2.772-3.48,6.521-5.897,7.62c0.492,0.228,0.947,0.837,1.56,1.071
	c-1.113,2.98-3.467,6.48-6.699,7.036c-0.691,1.907-2.715,5.549-4.888,5.987c0.136,2.263-2.387,2.811-3.455,4.257
	c-0.621,0.839-0.675,1.905-1.315,2.858c-0.56,0.834-1.784,1.36-2.237,2.097c-0.602,0.98-0.276,2.374-0.959,3.479
	c-0.587,0.947-1.5,1.36-2.184,2.101c-1.426,1.547-2.831,3.147-4.106,4.688c-1.61,1.943-1.952,4.517-4.171,5.995
	c-0.351,1.959-1.602,2.876-2.619,4.417c-1.058,1.604-1.222,3.238-2.243,4.836c-1.266,1.981-1.558,1.832-1.783,4.077
	c-0.2,1.996-0.259,3.974-0.636,6.001c-0.358,1.933-1.398,4.365-1.179,6.329c0.201,1.788,1.499,4.021,2.143,5.744
	c0.674,1.811,1.406,3.325,1.521,5.313c0.131,2.262-1.036,3.138-1.419,4.929c-0.506,2.364,0.061,3.678-1.305,6.04
	c-0.925,1.6-2.104,3.037-3.148,4.56c-0.936,0.012-1.745-0.045-2.625-0.183c-0.75,3.723-5.722,3.051-8.411,2.63
	c0.924-3.403,2.545-17.25-1.662-17.991L386.084,283.84z"/>
<path d="M228.023,173.69c-1.006-0.122-1.999-0.219-2.961-0.042c-0.895,0.165-1.774,0.838-2.656,0.97
	c-1.286,0.191-1.695-0.689-2.605-1.131c-0.927-0.45-1.588,0.244-2.575,0.514c-1.187,0.324-2.105,0.254-2.67-0.877
	c-1.723,0.795-3.685,1.887-5.44,0.465c-1.076,1.378-4.894-0.021-6.082-0.699c-0.774,1.375-3.924,1.225-5.124,0.593
	c-0.746-0.393-1.163-1.078-2.049-1.182c-0.924-0.108-1.912,0.406-2.86,0.374c-0.879-0.03-1.657-0.368-2.534-0.356
	c-0.985,0.014-1.733,0.067-2.733-0.156c-1.043-0.233-1.453-0.659-2.331-1.153c-0.776-0.437-1.432-0.36-2.32-0.461
	c-2.176-0.244-4.013-0.64-4.769-2.917c-1.552-0.231-3.64-0.507-4.098-2.345c-1.682-0.731-2.996-1.973-1.645-3.753
	c1.126-1.482,3.083-1.736,4.768-2.118c3.823-0.866,7.648-2.242,11.576-2.53c2.198-0.161,4.292-0.051,6.448-0.615
	c-0.921-0.362-1.457-1.512-2.28-2.102c-0.822-0.589-1.882-1.061-1.646-2.284c-4.304-2.837,3.003-5.6,5.394-6.18
	c4.503-1.094,8.371-0.706,12.901-0.32c2.271,0.193,4.442,0.07,6.718,0.027l0.015-0.015c-0.218-0.534-1.027-1.67-1.3-2.395
	c-0.133-0.354-0.021-1.021-0.219-1.471c-0.241-0.548-0.682-0.81-0.738-1.493c-1.771-1.301-2.42-3.062-4.635-3.934
	c-3.786-1.49-7.821-2.674-11.722-3.819c-1.989-0.584-4.101-1.13-6.141-1.496c-1.7-0.306-4.6-0.117-6.011-1.177l-0.015-0.015
	c6.613-0.197,12.361,0.974,18.723,2.609c2.971,0.765,5.952,1.196,9.024,1.067c3.171-0.134,6.301-0.769,9.475-0.847
	c6.604-0.162,10.265,3.227,12.9,8.975c1.221,2.663,2.395,5.314,4.255,7.608c2.088,2.575,4.755,4.593,7.374,6.59
	c4.917,3.748,9.643,7.515,12.28,13.252c0.235,0.51,0.456,1.025,0.677,1.541c1.154,1.241,1.78,3.473,2.562,5.029
	c0.903,1.798,1.666,3.543,2.649,5.299c2.069,3.696,5.053,6.785,7.042,10.507c1.062,1.988,2.619,3.899,3.033,6.133
	c-0.549,0.149-0.89-0.213-1.402-0.164c0.611,0.828,0.021,1.29-0.753,1.025c-0.489-0.168-1.259-1.115-1.573-1.522
	c-0.872-1.13-1.382-2.601-2.545-3.507c-0.941,1.109-2.838-0.321-3.883-0.736c-1.431-0.569-2.673-1.557-3.98-2.355
	c-1.357-0.828-2.979-1.556-4.235-2.512c-1.282-0.976-1.985-1.907-3.553-2.635c-1.437-0.667-2.815-1.875-4.233-2.404
	c0.049,0.227-0.08,0.556-0.038,0.786c-0.771,0.062-1.444-0.116-1.973,0.184c0.008,0-0.189,0.158-0.199,0.164
	c0.073-0.021-0.391-0.085-0.365-0.078c0.013,0.172-0.052,0.384-0.041,0.555c-0.1-0.095-0.25-0.195-0.356-0.321
	c-0.432,0.18-0.903,0.204-1.163,0.672c-0.12-0.12-0.428-0.198-0.562-0.351c-0.112,0.115-0.271,0.2-0.38,0.345
	c-0.487-0.136-0.398-0.341-0.698,0.126c-0.346-0.703-1.601-0.521-2.342-0.909c-0.984,0.77-2.944-1.264-3.723-1.845
	c0.109,0.447,0.406,0.929,0.688,1.283c0.049,0.037,0.052,0.035,0.006-0.006c-1.241-0.517-2.317-2.106-3.353-2.943
	c-0.028,0.132,0.058,0.154,0.054,0.236c-0.166-0.233-0.458-0.42-0.629-0.674c-0.055,0.081-0.114,0.208-0.173,0.292
	c-1.535-0.944-1.937-2.554-3.187-3.73c-1.076-1.014-1.969-1.744-3.068-2.646H228.023z"/>
<path d="M235.827,41.303c-0.83-2.925-0.936-6.117-2.007-8.953c-0.54-1.429-4.525-6.152-3.46-7.577
	c1.231-1.651,6.739,1.478,8.063,2.039c2.783,1.179,5.415,2.2,7.651,4.318c2.471,2.339,4.26,5.194,7.279,6.905l-0.05-0.049
	c3.469-0.525,7.506,0.301,10.896-0.545c1.718-0.429,3.711-0.255,5.365-0.821c1.557-0.532,2.577-2.116,3.678-3.285
	c0.886-0.941,2.61-3.853,4.109-3.176c0.196,1.538,1.66-0.496,1.938-1.06c0.524-1.061,0.827-2.239,1.316-3.316
	c1.022-2.251,1.67-4.372,2.333-6.744c3.356,1.564,0.462,6.606,0.299,9.031c2.914-0.637,4.82-5.44,6.228-7.814
	c1.86-3.139,3.29-6.693,4.831-10.047c0.552-1.202,1.314-5.095,3.146-4.53c1.769,0.349-0.674,11.958-4.82,16.883
	c-0.71,0.843-2.34,2.562-1.959,3.725c2.75-2.067,5.524-4.146,7.944-6.602c2.619-2.656,4.5-5.789,6.574-8.857
	c0.724-1.07,3.692-5.739,4.242-2.435c0.525,3.15-1.983,7.648-3.696,10.114c-2.021,2.914-4.753,5.374-7.055,8.067
	c1.587,0.321,2.742-0.899,4.095-1.431c1.645-0.646,2.979-0.656,4.377-1.892c2.341-2.072,4.646-4.175,7.016-6.229
	c1.151-0.998,2.494-2.003,3.929-2.546c2.843,1.949-1.176,5.103-3.006,7.536c-0.763,1.015-1.344,2.203-2.32,3.042
	c-1.069,0.92-2.43,1.503-3.564,2.363c-1.229,0.934-2.874,1.703-3.847,2.9c2.192,1.128,5.838,0.014,8.141-0.533
	c2.647-0.629,4.976-2.487,7.416-3.647c1.2-0.571,2.666-1.342,4.013-1.298c2.621,2.503-5.602,7.206-9.653,10.017
	c-0.996,0.691-2.278,1.348-3.083,2.26c2.521,0.167,5.02,0.178,7.574,0.179c1.242,0,2.534,0.023,3.698-0.153
	c1.032-0.155,2.432-0.704,3.289,0.149c0.981,1.451-2.979,3.881-5.555,4.994c-2.355,1.015-5.123,1.586-7.645,1.987
	c-1.459,0.232-2.87,0.307-4.349,0.301c1.82,0.445,1.567,2.334,1.531,3.078c-0.074,1.537-1.522,2.593-1.504,4.025
	c1.492,0.475,2.564,2.171,1.636,3.636c-1.007,1.588-2.865,0.466-4.206,1.437c1.087,1.096,2.946,3.307,3.034,4.857
	c0.144,2.585-2.446,2.357-4.297,2.298c0.44,1.488,0.705,3.581-0.845,4.536c-1.41,0.872-3.588,0.188-5.129,0.068
	c0.858,3.515-3.606,3.864-6.091,3.112c-0.155,2.813-4.031,1.268-5.41,1.277c-1.169,0.01-1.632,0.703-2.914,0.208
	c-1.243-0.479-1.305-1.325-2.206-2.071c-1.51,2.12-4.188-0.879-5.087-2.192c-2.047,2.396-3.726-1.716-5.03-2.183
	c0.992,1.467,1.45,2.533,2.812,3.712c1.476,1.277,2.961,2.518,4.478,3.752c2.638,2.146,7.284,3.11,9.172,6.119
	c0.942,1.502,0.667,4.63-1.232,5.373l-0.1-0.049c1.659,0.65,3.094,4.273,2.16,5.886c-1.18,2.039-4.794,0.799-6.141-0.375
	c0.292,2.74,4.579,17.271-2.664,13.969c-0.055,0.053-0.11,0.104-0.166,0.156c0.457,1.488-0.494,4.062-1.949,4.779
	c-1.659,0.817-3.336-0.779-4.576-1.675c0.17,1.688-0.026,4.404-1.98,4.925c-1.745,0.467-3.561-0.698-4.408-2.107
	c-0.056,2.079-2.153,2.43-3.842,1.896c-1.888-0.598-2.267-2.333-2.455-4.12c-1.152,2.119-2.775,2.383-4.672,0.978
	c-1.874-1.392-1.815-2.805-1.863-4.988c-1.374,1.303-3.746,0.327-4.498-1.01c-1.122-2-1.058-3.641-1.143-5.818
	c-1.554,1.041-2.566,1.708-4.352,0.5c-1.533-1.036-2.429-3.16-2.214-4.985c-1.996-0.172-2.661-2.459-2.826-4.171
	c-0.183-1.905,0.87-3.377,1.798-4.958c2.244-3.825,5.035-6.103,8.196-9.055c1.035-0.969,4.057-2.95,3.111-4.653
	c-1.536-0.778-1.444,2.03-2.298,2.691c-1.282,0.991-2.359-0.021-3.438-0.619c-0.72,2.656-3.379,4.248-5.639,1.936
	c-0.469,1.386-1.914,1.476-3.168,1.455c-1.507-0.026-1.959-0.84-3.227-1.311c-0.333,1.358-1.839,1.348-2.938,1.454
	c-1.627,0.157-1.915-0.158-3.182-1.116c-0.97,2.546-4.097,0.673-5.646-0.521c-1.859,3.041-10.06,0.192-9.973-3.382
	c-3.436,1.221-9.507,0.7-9.356-4.304c-2.064,0.728-3.6,0.514-5.609-0.454c-1.312-0.634-3.441-1.936-2.861-3.703
	c-2.277-0.614-8.49-3.552-6.806-6.857v0.099c-2.772,0.147-5.876-0.682-8.644-0.71c-3.005-0.032-5.288-0.159-8.121-1.455
	c-1.326-0.606-2.644-1.264-3.71-2.27c1.478-0.756,3.004-0.678,4.618-0.681c1.117-0.002,3.012,0.29,2.366-1.202
	c-0.994-2.297-7.578-2.046-9.631-3.336c-1.43-0.9-3.96-1.288-3.562-4.117c4.46-0.031,8.765,3.509,13.442,2.956
	c0.201-1.504-6.211-3.261-7.534-3.922c-2.726-1.362-5.584-2.424-7.544-4.769c-0.816-0.977-3.168-3.17-1.961-4.034
	c1.919,0.175,4.514,2.306,6.114,3.389c2.221,1.502,4.387,2.845,6.868,3.907c1.236,0.53,2.992,1.26,4.354,1.122
	c-5.586-3.98-12.483-8.791-14.879-14.633c-1.218-2.97,0.572-3.176,2.239-0.936c1.987,2.672,3.329,4.708,5.731,7.075
	c2.191,2.159,5.045,4.69,7.659,6.258c0.615,0.567-10.203-10.53-11.026-15.466c-0.521-3.123,0.53-2.903,1.98-0.55
	c1.738,2.819,3.413,5.465,5.347,8.173c1.784,2.496,3.67,4.918,6.038,6.818c-0.903-1.153-5.462-6.531-3.859-7.971
	c1.433,1.026,1.339,2.877,2.831,3.873c1.547,1.032,3.178,1.954,4.697,3.023c1.584,1.116,2.89,2.37,4.779,2.961
	c1.965,0.615,4.041,0.689,6.066,0.964c2.276,0.311,4.467,0.482,6.767,0.551c-0.69-0.611-2.414-0.964-2.491-2.028
	c2.18-0.006,4.806,1.308,6.993,1.74c2.564,0.504,4.979,0.303,7.562,0.317c4.927,0.028,9.86,0.524,14.755,0.293
	c2.705-0.127,5.631-0.159,8.334-0.147L235.827,41.303z"/>
<path d="M325.602,181.236c1.332-0.708,2.215-2.104,3.354-3.099c2.455,1.522,6.529-1.693,8.061-3.509
	c0.838,1.263,4.133-0.259,5.07-0.876c0.775-0.509,1.185-1.358,1.992-1.584c0.821-0.229,1.921,0.005,2.82-0.267
	c1.718-0.518,2.768-2.434,4.241-2.756c1.933-0.423,2.905-1.062,4.522-2.132c0.885-0.585,1.797-0.114,2.946-0.533
	c0.995-0.363,2.062-1.147,2.371-2.212c0.985-0.05,2.123,0.175,3.049-0.229c0.266-0.115,0.627-0.653,0.847-0.695
	c0.316-0.056,1.071,0.296,1.443,0.33c2.154,0.203,3.515-0.469,5.12-1.711c1.459,1.672,3.781-0.736,4.824-1.538
	c0.772-0.593,1.659-0.185,2.69-0.634c0.823-0.359,1.627-1.18,1.959-2.01c1.228,0.254,4.368-0.299,3.984-2.17
	c2.322-0.623,3.754,0.245,5.138-2.049c1.639,1.055,1.821-1.104,2.545-1.585c1.028-0.685,2.56-0.434,2.454-2.289
	c1.402,0.086,2.748-0.647,2.619-2.163c1.675,0.178,1.498-1.456,2.317-2.217c0.981-0.91,3.21-0.861,2.043-2.7
	c0.691-0.536,1.03-1.812,0.258-2.368l0.021,0.006c2.266-0.13,5.251,0.052,7.263,1.114c3.92,2.073,7.812,4.062,11.695,6.187
	c1.665,0.908,11.282,6.114,12.547,4.442c-0.132-0.137-0.271-0.318-0.373-0.435c0.569,0.164,3.421,0.745,1.811-0.59
	c2.012-0.451,4.116,0.089,6.09-0.339c1.471-0.318,1.352-0.562,1.535-1.992c0.112-0.88,0.469-1.71-0.33-2.386
	c1.723-0.348,3.358-0.051,4.181-1.93c0.591-1.348-0.165-2.785-1.453-3.609c0.212-0.053,0.415-0.253,0.727-0.284
	c-0.062-0.71-0.83-0.827-1.366-1.193c0.166-0.065,0.374-0.251,0.603-0.33c0.065-0.21,0.022-0.388,0.11-0.579
	c-0.725-2.016-4.838-2.758-6.594-3.387c-4.803-1.717-9.592-3.311-14.447-4.874c-2.375-0.765-4.33-1.772-6.262-3.249
	c-1.539-1.176-3.463-2.85-5.313-3.437l-0.101-0.071c1.446-0.754,2.215-2.523,0.571-3.818c1.758-1.166,1.942-2.235,1.099-4.072
	c1.374-0.228,1.973-2.826,0.762-3.484c2.104-0.8,2.043-3.041,1.214-4.715c2.721,0.053,1.806-2.722,0.916-4.09
	c0.841-0.485,1.621-1.198,1.801-2.201c0.179-0.999-0.917-2.379-0.766-3.186c0.182-0.971,1.18-0.947,1.223-2.242
	c0.033-1.025-0.524-2.043-1.044-2.857c2.079-1.126,1.472-4.422,0-5.84c1.309-1.854,0.927-4.681-0.645-6.34
	c1.836-1.676,1.465-5.313-0.574-6.682c2.14-2.396,0.964-5.297-1.021-7.29c1.317-0.647,1.007-1.681,0.578-2.622
	c-0.387-0.846-1.117-2.479-2.146-2.575c3.169-1.157-0.483-5.036-2.138-5.737l0.228-0.417c0.682-1.337,1.064-1.544,1.468-3.095
	c0.272-1.041,0.373-5.044-1.781-3.338c0.662-1.518,3.704-8.707-0.046-7.146c0.508-2.241,0.84-4.147,0.716-6.637
	c-0.506-0.094-0.959-0.194-1.442-0.317c2.078-0.834,0.703-5.827,0.528-7.423c-0.766-0.526-1.525-0.129-2.352-0.021
	c2.842-2.114,0.228-7.55,0.992-10.308c-0.7-0.142-1.425-0.062-1.956,0.432l0.02-0.02c0.553-1.702,1.213-3.904,1.504-5.758
	c0.269-1.701,1.14-4.05,0.599-5.701c-1.728,1.764-3.585,3.603-4.853,5.762c-1.772,3.018-3.909,5.926-5.485,9.002
	c0.665-1.013,0.969-2.218,1.38-3.348c0.876-2.412,0.957-5.137,1.278-7.675c0.167-1.301,0.482-2.649,0.559-3.962
	c0.072-1.221-0.449-2.367-0.308-3.588c-1.409,2.3-2.406,4.986-3.55,7.457c-0.796,1.719-1.662,3.392-2.454,5.109
	c-0.617,1.334-1.067,3.276-1.875,4.371c0.562-2.839,0.194-6.065-0.029-8.957c-0.213-2.73-0.431-6.316-1.979-8.723
	c-0.246,2.89-1.041,6.049-1.593,8.959c-0.592,3.131-0.896,6.373-1.436,9.453c-0.718-4.494-2.377-9.197-4.525-13.306
	c0.225,1.758,0.272,3.183,0.272,4.972c-0.004,6.723-1.441,12.879-2.731,19.268c0.001-4.244-1.344-9.67-4.407-12.861
	c0,0,0.411,13.195-0.825,19.974c-1.125,6.175-2.981,12.36-4.411,18.486c-1.519,6.503-3.786,12.388-2.941,19.171
	c0.813,6.543,2.831,12.877,3.013,19.502c0.123,4.566,1.206,14.594-4.673,16.031c-0.646,0.16-2.007,0.214-2.007,0.214
	c-1.855,0.138-3.384-0.333-5.199-0.581c-1.784-0.242-3.438,0.158-5.174,0.533c-1.696,0.367-3.047,0.807-4.47,1.814
	c-1.407,0.996-2.895,1.406-4.39,2.203c-2.016,1.074-1.968,2.83-1.38,4.816c0.322-0.445,0.756-1.268,1.591-1.438
	c5.183-0.589,9.939,3.524,12.592,6.945c4.002,5.164-5.897,8.544-9.37,10.136c-5.219,2.391-11.347,3.504-15.284,7.984
	c-1.946,2.213-3.362,4.829-5.171,7.148c-1.836,2.352-4.051,4.34-6.068,6.521c-1.996,2.155-3.588,4.736-5.725,6.75
	c-2.077,1.957-4.467,2.195-7.188,1.705c-0.726-0.131-1.441-0.301-2.16-0.467c0.614,1.348,3.107,2.37,4.504,2.241
	c1.7-0.157,3.459-1.641,5.152-1.447c-0.467,1.709-2.457,3.155-3.938,4.01c-1.615,0.932-3.901,0.182-5.631-0.191
	c-1.293-0.277-2.215-0.438-3.504,0.031c2.672,3.233,8.31,1.879,11.588,0.5c-0.156,1.585-2.585,3.298-4.027,3.384
	c-1.621,0.096-4.465-1.009-5.819,0.22c3.409,0.55,6.265,0.936,9.477-0.517c0.746-0.337,2.722-1.446,2.703,0.001
	c-0.013,1.344-2.713,2.91-3.653,3.556c-1.402,0.962-2.767,1.933-4.089,3.004c1.763-0.638,3.562-0.931,5.237-1.842
	c0.789-0.43,1.442-1.038,2.178-1.476c0.85-0.5,1.721-0.579,2.592-0.978c0.961-0.438,1.588-1.062,2.368-1.761
	c1.966,1.232-3.698,7.437-2.733,9.579C322.348,183.501,324.516,181.811,325.602,181.236z"/>
</svg>
